<mxfile host="app.diagrams.net" modified="2023-10-19T09:28:34.598Z" agent="Mozilla/5.0 (X11; Linux x86_64) AppleWebKit/537.36 (KHTML, like Gecko) Chrome/118.0.0.0 Safari/537.36" etag="oYswJTzhIglW0sjPhDOg" version="22.0.5" type="github">
  <diagram id="C5RBs43oDa-KdzZeNtuy" name="Page-1">
    <mxGraphModel dx="1222" dy="686" grid="0" gridSize="10" guides="1" tooltips="1" connect="1" arrows="1" fold="1" page="1" pageScale="1" pageWidth="1169" pageHeight="827" math="0" shadow="0">
      <root>
        <mxCell id="WIyWlLk6GJQsqaUBKTNV-0" />
        <mxCell id="WIyWlLk6GJQsqaUBKTNV-1" parent="WIyWlLk6GJQsqaUBKTNV-0" />
        <mxCell id="XrjM6AQatOQEKFj0JOy--3" value="" style="rounded=0;whiteSpace=wrap;html=1;" vertex="1" parent="WIyWlLk6GJQsqaUBKTNV-1">
          <mxGeometry x="259" y="28" width="396" height="400" as="geometry" />
        </mxCell>
        <mxCell id="XrjM6AQatOQEKFj0JOy--12" style="edgeStyle=orthogonalEdgeStyle;rounded=0;orthogonalLoop=1;jettySize=auto;html=1;exitX=1;exitY=0.3333333333333333;exitDx=0;exitDy=0;exitPerimeter=0;" edge="1" parent="WIyWlLk6GJQsqaUBKTNV-1" source="XrjM6AQatOQEKFj0JOy--4" target="XrjM6AQatOQEKFj0JOy--7">
          <mxGeometry relative="1" as="geometry" />
        </mxCell>
        <mxCell id="XrjM6AQatOQEKFj0JOy--4" value="&lt;b&gt;&lt;font style=&quot;font-size: 11px;&quot;&gt;Customer&lt;/font&gt;&lt;/b&gt;" style="shape=umlActor;verticalLabelPosition=bottom;verticalAlign=top;html=1;outlineConnect=0;" vertex="1" parent="WIyWlLk6GJQsqaUBKTNV-1">
          <mxGeometry x="56" y="69" width="90" height="170" as="geometry" />
        </mxCell>
        <mxCell id="XrjM6AQatOQEKFj0JOy--7" value="&lt;font size=&quot;1&quot; style=&quot;&quot;&gt;&lt;b style=&quot;font-size: 21px;&quot;&gt;User Account Management&lt;/b&gt;&lt;/font&gt;" style="ellipse;whiteSpace=wrap;html=1;" vertex="1" parent="WIyWlLk6GJQsqaUBKTNV-1">
          <mxGeometry x="376" y="88" width="183" height="77" as="geometry" />
        </mxCell>
        <mxCell id="XrjM6AQatOQEKFj0JOy--14" value="&lt;font style=&quot;font-size: 21px;&quot;&gt;Leaderboards&lt;/font&gt;" style="ellipse;whiteSpace=wrap;html=1;fontStyle=1" vertex="1" parent="WIyWlLk6GJQsqaUBKTNV-1">
          <mxGeometry x="284" y="202.5" width="161" height="74" as="geometry" />
        </mxCell>
        <mxCell id="XrjM6AQatOQEKFj0JOy--15" value="&lt;span style=&quot;font-size: 21px;&quot;&gt;&lt;b&gt;Playing Games&lt;/b&gt;&lt;/span&gt;" style="ellipse;whiteSpace=wrap;html=1;" vertex="1" parent="WIyWlLk6GJQsqaUBKTNV-1">
          <mxGeometry x="468" y="205" width="167.5" height="69" as="geometry" />
        </mxCell>
        <mxCell id="XrjM6AQatOQEKFj0JOy--16" value="" style="shape=cylinder3;whiteSpace=wrap;html=1;boundedLbl=1;backgroundOutline=1;size=15;" vertex="1" parent="WIyWlLk6GJQsqaUBKTNV-1">
          <mxGeometry x="720.5" y="278" width="87" height="73" as="geometry" />
        </mxCell>
        <mxCell id="XrjM6AQatOQEKFj0JOy--17" value="" style="shape=cylinder3;whiteSpace=wrap;html=1;boundedLbl=1;backgroundOutline=1;size=15;" vertex="1" parent="WIyWlLk6GJQsqaUBKTNV-1">
          <mxGeometry x="720.5" y="235" width="87" height="73" as="geometry" />
        </mxCell>
        <mxCell id="XrjM6AQatOQEKFj0JOy--18" value="&lt;b&gt;Game APIs (Images, Game Cards, ...)&lt;/b&gt;" style="text;html=1;strokeColor=none;fillColor=none;align=center;verticalAlign=middle;whiteSpace=wrap;rounded=0;" vertex="1" parent="WIyWlLk6GJQsqaUBKTNV-1">
          <mxGeometry x="705" y="356" width="118" height="45" as="geometry" />
        </mxCell>
        <mxCell id="XrjM6AQatOQEKFj0JOy--19" value="" style="endArrow=none;html=1;rounded=0;entryX=-0.012;entryY=0.968;entryDx=0;entryDy=0;entryPerimeter=0;exitX=1;exitY=0.5;exitDx=0;exitDy=0;" edge="1" parent="WIyWlLk6GJQsqaUBKTNV-1" source="XrjM6AQatOQEKFj0JOy--15" target="XrjM6AQatOQEKFj0JOy--17">
          <mxGeometry width="50" height="50" relative="1" as="geometry">
            <mxPoint x="413" y="277" as="sourcePoint" />
            <mxPoint x="463" y="227" as="targetPoint" />
          </mxGeometry>
        </mxCell>
        <mxCell id="XrjM6AQatOQEKFj0JOy--21" value="" style="rounded=0;whiteSpace=wrap;html=1;" vertex="1" parent="WIyWlLk6GJQsqaUBKTNV-1">
          <mxGeometry x="313" y="503.25" width="284" height="205" as="geometry" />
        </mxCell>
        <mxCell id="XrjM6AQatOQEKFj0JOy--22" value="Frontend" style="text;html=1;strokeColor=none;fillColor=none;align=center;verticalAlign=middle;whiteSpace=wrap;rounded=0;fontSize=14;fontStyle=1" vertex="1" parent="WIyWlLk6GJQsqaUBKTNV-1">
          <mxGeometry x="264" y="31" width="76" height="38" as="geometry" />
        </mxCell>
        <mxCell id="XrjM6AQatOQEKFj0JOy--23" value="Spring Backend" style="text;html=1;strokeColor=none;fillColor=none;align=center;verticalAlign=middle;whiteSpace=wrap;rounded=0;fontStyle=1;fontSize=13;" vertex="1" parent="WIyWlLk6GJQsqaUBKTNV-1">
          <mxGeometry x="318" y="509.25" width="101" height="30" as="geometry" />
        </mxCell>
        <mxCell id="XrjM6AQatOQEKFj0JOy--24" value="" style="shape=cylinder3;whiteSpace=wrap;html=1;boundedLbl=1;backgroundOutline=1;size=15;" vertex="1" parent="WIyWlLk6GJQsqaUBKTNV-1">
          <mxGeometry x="720.5" y="590.25" width="87" height="73" as="geometry" />
        </mxCell>
        <mxCell id="XrjM6AQatOQEKFj0JOy--25" value="" style="shape=cylinder3;whiteSpace=wrap;html=1;boundedLbl=1;backgroundOutline=1;size=15;" vertex="1" parent="WIyWlLk6GJQsqaUBKTNV-1">
          <mxGeometry x="720.5" y="547.25" width="87" height="73" as="geometry" />
        </mxCell>
        <mxCell id="XrjM6AQatOQEKFj0JOy--26" value="&lt;b&gt;PostgreSQL Database&lt;/b&gt;" style="text;html=1;strokeColor=none;fillColor=none;align=center;verticalAlign=middle;whiteSpace=wrap;rounded=0;" vertex="1" parent="WIyWlLk6GJQsqaUBKTNV-1">
          <mxGeometry x="705" y="663.25" width="118" height="45" as="geometry" />
        </mxCell>
        <mxCell id="XrjM6AQatOQEKFj0JOy--27" value="" style="endArrow=none;html=1;rounded=0;entryX=0;entryY=1;entryDx=0;entryDy=-15;entryPerimeter=0;exitX=1;exitY=0.5;exitDx=0;exitDy=0;" edge="1" parent="WIyWlLk6GJQsqaUBKTNV-1" source="XrjM6AQatOQEKFj0JOy--29" target="XrjM6AQatOQEKFj0JOy--25">
          <mxGeometry width="50" height="50" relative="1" as="geometry">
            <mxPoint x="424" y="542" as="sourcePoint" />
            <mxPoint x="474" y="492" as="targetPoint" />
          </mxGeometry>
        </mxCell>
        <mxCell id="XrjM6AQatOQEKFj0JOy--29" value="&lt;font style=&quot;font-size: 21px;&quot;&gt;RESTful API&lt;/font&gt;" style="ellipse;whiteSpace=wrap;html=1;fontStyle=1" vertex="1" parent="WIyWlLk6GJQsqaUBKTNV-1">
          <mxGeometry x="372.5" y="572.25" width="163.5" height="66.5" as="geometry" />
        </mxCell>
        <mxCell id="XrjM6AQatOQEKFj0JOy--30" value="" style="endArrow=none;html=1;rounded=0;exitX=0.5;exitY=0;exitDx=0;exitDy=0;entryX=0.5;entryY=1;entryDx=0;entryDy=0;" edge="1" parent="WIyWlLk6GJQsqaUBKTNV-1" source="XrjM6AQatOQEKFj0JOy--29" target="XrjM6AQatOQEKFj0JOy--14">
          <mxGeometry width="50" height="50" relative="1" as="geometry">
            <mxPoint x="444" y="495" as="sourcePoint" />
            <mxPoint x="494" y="445" as="targetPoint" />
          </mxGeometry>
        </mxCell>
        <mxCell id="XrjM6AQatOQEKFj0JOy--31" value="" style="endArrow=none;html=1;rounded=0;exitX=0.5;exitY=0;exitDx=0;exitDy=0;entryX=0.5;entryY=1;entryDx=0;entryDy=0;" edge="1" parent="WIyWlLk6GJQsqaUBKTNV-1" source="XrjM6AQatOQEKFj0JOy--29" target="XrjM6AQatOQEKFj0JOy--15">
          <mxGeometry width="50" height="50" relative="1" as="geometry">
            <mxPoint x="444" y="495" as="sourcePoint" />
            <mxPoint x="494" y="445" as="targetPoint" />
          </mxGeometry>
        </mxCell>
        <mxCell id="XrjM6AQatOQEKFj0JOy--32" value="" style="endArrow=none;html=1;rounded=0;entryX=0.5;entryY=1;entryDx=0;entryDy=0;exitX=0.5;exitY=0;exitDx=0;exitDy=0;" edge="1" parent="WIyWlLk6GJQsqaUBKTNV-1" source="XrjM6AQatOQEKFj0JOy--14" target="XrjM6AQatOQEKFj0JOy--7">
          <mxGeometry width="50" height="50" relative="1" as="geometry">
            <mxPoint x="404" y="298" as="sourcePoint" />
            <mxPoint x="454" y="248" as="targetPoint" />
          </mxGeometry>
        </mxCell>
        <mxCell id="XrjM6AQatOQEKFj0JOy--33" value="" style="endArrow=none;html=1;rounded=0;entryX=0.5;entryY=1;entryDx=0;entryDy=0;exitX=0.546;exitY=-0.006;exitDx=0;exitDy=0;exitPerimeter=0;" edge="1" parent="WIyWlLk6GJQsqaUBKTNV-1" source="XrjM6AQatOQEKFj0JOy--15" target="XrjM6AQatOQEKFj0JOy--7">
          <mxGeometry width="50" height="50" relative="1" as="geometry">
            <mxPoint x="414" y="308" as="sourcePoint" />
            <mxPoint x="464" y="258" as="targetPoint" />
          </mxGeometry>
        </mxCell>
        <mxCell id="XrjM6AQatOQEKFj0JOy--34" value="" style="shape=cylinder3;whiteSpace=wrap;html=1;boundedLbl=1;backgroundOutline=1;size=15;" vertex="1" parent="WIyWlLk6GJQsqaUBKTNV-1">
          <mxGeometry x="720.5" y="74" width="87" height="73" as="geometry" />
        </mxCell>
        <mxCell id="XrjM6AQatOQEKFj0JOy--35" value="" style="shape=cylinder3;whiteSpace=wrap;html=1;boundedLbl=1;backgroundOutline=1;size=15;" vertex="1" parent="WIyWlLk6GJQsqaUBKTNV-1">
          <mxGeometry x="720.5" y="31" width="87" height="73" as="geometry" />
        </mxCell>
        <mxCell id="XrjM6AQatOQEKFj0JOy--36" value="&lt;b&gt;GitHub OAuth2 Authentication&lt;br&gt;&lt;/b&gt;" style="text;html=1;strokeColor=none;fillColor=none;align=center;verticalAlign=middle;whiteSpace=wrap;rounded=0;" vertex="1" parent="WIyWlLk6GJQsqaUBKTNV-1">
          <mxGeometry x="705" y="152" width="118" height="45" as="geometry" />
        </mxCell>
        <mxCell id="XrjM6AQatOQEKFj0JOy--37" value="" style="endArrow=none;html=1;rounded=0;entryX=0;entryY=0;entryDx=0;entryDy=15;entryPerimeter=0;exitX=1;exitY=0.5;exitDx=0;exitDy=0;" edge="1" parent="WIyWlLk6GJQsqaUBKTNV-1" source="XrjM6AQatOQEKFj0JOy--7" target="XrjM6AQatOQEKFj0JOy--34">
          <mxGeometry width="50" height="50" relative="1" as="geometry">
            <mxPoint x="503" y="394" as="sourcePoint" />
            <mxPoint x="553" y="344" as="targetPoint" />
          </mxGeometry>
        </mxCell>
      </root>
    </mxGraphModel>
  </diagram>
</mxfile>
